<svg xmlns="http://www.w3.org/2000/svg" width="50" height="49" viewBox="0 0 50 49">
  <g fill="none" transform="translate(0 .2)">
    <path fill="#300" d="M8.71794872,0 L40.5128205,0 C45.3333333,0 49.2307692,3.8974359 49.2307692,8.71794872 L49.2307692,39.2820513 C49.2307692,44.1025641 45.3333333,48 40.5128205,48 L8.71794872,48 C3.8974359,48 0,44.1025641 0,39.2820513 L0,8.71794872 C0,3.8974359 3.8974359,0 8.71794872,0 Z"/>
    <path fill="#FF9A00" d="M13.6840114 18.1538462L6.05324215 18.1538462 4.49426779 22.974359C4.45324215 23.1589744 4.28913958 23.2820513 4.1045242 23.2615385L.248113942 23.2615385C.0224729162 23.2615385-.0390655453 23.1384615.0224729162 22.8923077L6.62760112 3.87692308C6.68913958 3.67179487 6.75067804 3.44615385 6.83272933 3.2 6.91478061 2.76923077 6.95580625 2.31794872 6.95580625 1.86666667 6.93529343 1.76410256 7.01734471 1.66153846 7.11990881 1.64102564 7.14042163 1.64102564 7.16093445 1.64102564 7.18144728 1.64102564L12.4327293 1.64102564C12.5968319 1.64102564 12.6788832 1.7025641 12.699396 1.80512821L20.1865755 22.9333333C20.2481139 23.1589744 20.1865755 23.2615385 19.9814473 23.2615385L15.6942678 23.2615385C15.550678 23.2820513 15.4070883 23.1794872 15.3660627 23.0358974L13.6840114 18.1538462zM7.24298574 13.9897436L12.4532421 13.9897436C12.3301652 13.5589744 12.1660627 13.0461538 11.9814473 12.5128205 11.7968319 11.9589744 11.6122165 11.3641026 11.4276011 10.7487179 11.2224729 10.1128205 11.0378575 9.4974359 10.8327293 8.86153846 10.6276011 8.22564103 10.4429857 7.63076923 10.2788832 7.03589744 10.1147806 6.46153846 9.97119086 5.92820513 9.82760112 5.43589744L9.78657548 5.43589744C9.6019601 6.31794872 9.37631907 7.2 9.08913958 8.08205128 8.78144728 9.06666667 8.47375497 10.0923077 8.14554984 11.1179487 7.85837035 12.1641026 7.55067804 13.1282051 7.24298574 13.9897436L7.24298574 13.9897436zM24.6583704 5.14871795C23.9814473 5.16923077 23.325037 4.9025641 22.8327293 4.43076923 22.3609345 3.91794872 22.1147806 3.24102564 22.1352934 2.54358974 22.1147806 1.84615385 22.3814473 1.18974359 22.873755.717948718 23.3660627.246153846 24.0224729 0 24.699396 0 25.499396 0 26.1147806.246153846 26.5660627.717948718 27.0173447 1.21025641 27.2634986 1.86666667 27.2429857 2.54358974 27.2634986 3.24102564 27.0173447 3.91794872 26.525037 4.43076923 26.0532421 4.92307692 25.3558062 5.18974359 24.6583704 5.14871795zM22.3609345 22.9538462L22.3609345 7.15897436C22.3609345 6.95384615 22.4429857 6.87179487 22.6276011 6.87179487L26.6891396 6.87179487C26.873755 6.87179487 26.9558062 6.97435897 26.9558062 7.15897436L26.9558062 22.9538462C26.9558062 23.1794872 26.873755 23.2820513 26.6891396 23.2820513L22.6686268 23.2820513C22.4634986 23.2820513 22.3609345 23.1589744 22.3609345 22.9538462z" transform="translate(10.172 10.646)"/>
  </g>
</svg>
