<svg xmlns="http://www.w3.org/2000/svg" width="49" height="49" viewBox="0 0 49 49">
  <g fill="none" transform="translate(.6 .2)">
    <path fill="#DC395F" d="M43.6486875,0 L4.3513125,0 C1.948125,0 0,1.948125 0,4.3513125 L0,43.6486875 C0,46.051875 1.948125,48 4.3513125,48 L43.6486875,48 C46.051875,48 48,46.051875 48,43.6486875 L48,4.3513125 C48,1.948125 46.051875,0 43.6486875,0"/>
    <path fill="#FFF" d="M16.0415625,15.1021875 C17.6371875,15.1021875 18.973875,13.8515625 18.973875,12.2124375 C18.973875,10.5744375 17.6371875,9.324 16.0415625,9.324 C14.4459375,9.324 13.109625,10.5744375 13.109625,12.2124375 C13.109625,13.851375 14.4459375,15.1021875 16.0415625,15.1021875 M9.9616875,30.5746875 C9.789375,31.3078125 9.7029375,32.0994375 9.7029375,32.7451875 C9.7029375,35.28975 11.08275,36.9789375 14.0150625,36.9789375 C16.4469375,36.9789375 18.4185,35.5348125 19.8380625,33.202875 L18.97125,36.6815625 L23.8003125,36.6815625 L26.5603125,25.61175 C27.2503125,22.809 28.587,21.3541875 30.613875,21.3541875 C32.2093125,21.3541875 33.201,22.3464375 33.201,23.9844375 C33.201,24.459 33.157875,24.9759375 32.985375,25.53675 L31.56225,30.6249375 C31.346625,31.3580625 31.26075,32.0915625 31.26075,32.781 C31.26075,35.1965625 32.6833125,36.963375 35.65875,36.963375 C38.2029375,36.963375 40.2294375,35.3255625 41.3506875,31.401375 L39.4535625,30.669 C38.5048125,33.2979375 37.6854375,33.77325 37.0385625,33.77325 C36.3916875,33.77325 36.0466875,33.342375 36.0466875,32.4804375 C36.0466875,32.0923125 36.1333125,31.661625 36.2623125,31.143 L37.6425,26.185875 C37.9873125,25.021875 38.116875,23.9896875 38.116875,23.0413125 C38.116875,19.3329375 35.874375,17.3975625 33.157875,17.3975625 C30.613875,17.3975625 28.026375,19.692375 26.733,22.1075625 L27.681375,17.7725625 L20.308125,17.7725625 L19.273125,21.5908125 L22.7229375,21.5908125 L20.5985625,30.0958125 C18.930375,33.8041875 15.8660625,33.864375 15.4815,33.7783125 C14.85,33.6358125 14.446125,33.396 14.446125,32.5755 C14.446125,32.1020625 14.532375,31.422 14.748,30.6020625 L17.982375,17.7725625 L9.789375,17.7725625 L8.754375,21.5908125 L12.1606875,21.5908125 L9.961875,30.5746875"/>
  </g>
</svg>
