<svg xmlns="http://www.w3.org/2000/svg" width="50" height="49" viewBox="0 0 50 49">
  <g fill="none" transform="translate(.2 .2)">
    <path fill="#001E36" d="M8.71794872,0 L40.5128205,0 C45.3333333,0 49.2307692,3.8974359 49.2307692,8.71794872 L49.2307692,39.2820513 C49.2307692,44.1025641 45.3333333,48 40.5128205,48 L8.71794872,48 C3.8974359,48 0,44.1025641 0,39.2820513 L0,8.71794872 C0,3.8974359 3.8974359,0 8.71794872,0 Z"/>
    <path fill="#31A8FF" d="M0 21.4564103L0 .348717949C0 .205128205.0615384615.123076923.205128205.123076923.553846154.123076923.882051282.123076923 1.35384615.102564103 1.84615385.0820512821 2.35897436.0820512821 2.91282051.0615384615 3.46666667.041025641 4.06153846.041025641 4.6974359.0205128205 5.33333333 0 5.94871795 0 6.56410256 0 8.24615385 0 9.64102564.205128205 10.7897436.635897436 11.8153846.984615385 12.7589744 1.55897436 13.5384615 2.31794872 14.1948718 2.97435897 14.7076923 3.77435897 15.0358974 4.65641026 15.3435897 5.51794872 15.5076923 6.4 15.5076923 7.32307692 15.5076923 9.08717949 15.0974359 10.5435897 14.2769231 11.6923077 13.4564103 12.8410256 12.3076923 13.7025641 10.974359 14.1948718 9.57948718 14.7076923 8.04102564 14.8923077 6.35897436 14.8923077 5.86666667 14.8923077 5.53846154 14.8923077 5.33333333 14.8717949 5.12820513 14.8512821 4.84102564 14.8512821 4.45128205 14.8512821L4.45128205 21.4358974C4.47179487 21.5794872 4.36923077 21.7025641 4.22564103 21.7230769 4.20512821 21.7230769 4.18461538 21.7230769 4.14358974 21.7230769L.246153846 21.7230769C.0820512821 21.7230769 0 21.6410256 0 21.4564103zM4.47179487 4.08205128L4.47179487 10.974359C4.75897436 10.9948718 5.02564103 11.0153846 5.27179487 11.0153846L6.35897436 11.0153846C7.15897436 11.0153846 7.95897436 10.8923077 8.71794872 10.6461538 9.37435897 10.4615385 9.94871795 10.0717949 10.4 9.55897436 10.8307692 9.04615385 11.0358974 8.34871795 11.0358974 7.44615385 11.0564103 6.81025641 10.8923077 6.17435897 10.5641026 5.62051282 10.2153846 5.08717949 9.72307692 4.67692308 9.12820513 4.45128205 8.36923077 4.14358974 7.54871795 4.02051282 6.70769231 4.04102564 6.17435897 4.04102564 5.7025641 4.04102564 5.31282051 4.06153846 4.9025641 4.04102564 4.61538462 4.06153846 4.47179487 4.08205128L4.47179487 4.08205128zM28.3076923 9.72307692C27.6923077 9.39487179 27.0358974 9.16923077 26.3384615 9.02564103 25.5794872 8.86153846 24.8205128 8.75897436 24.0410256 8.75897436 23.6307692 8.73846154 23.2 8.8 22.8102564 8.9025641 22.5435897 8.96410256 22.3179487 9.10769231 22.174359 9.31282051 22.0717949 9.47692308 22.0102564 9.68205128 22.0102564 9.86666667 22.0102564 10.0512821 22.0923077 10.2358974 22.2153846 10.4 22.4 10.625641 22.6461538 10.8102564 22.9128205 10.9538462 23.3846154 11.2 23.8769231 11.425641 24.3692308 11.6307692 25.4769231 12 26.5435897 12.5128205 27.5282051 13.1282051 28.2051282 13.5589744 28.7589744 14.1333333 29.1487179 14.8307692 29.4769231 15.4871795 29.6410256 16.2051282 29.6205128 16.9435897 29.6410256 17.9076923 29.3538462 18.8717949 28.8205128 19.6717949 28.2461538 20.4923077 27.4461538 21.1282051 26.5230769 21.4974359 25.5179487 21.9282051 24.2871795 22.1538462 22.8102564 22.1538462 21.8666667 22.1538462 20.9435897 22.0717949 20.0205128 21.8871795 19.3025641 21.7641026 18.5846154 21.5384615 17.9282051 21.2307692 17.7846154 21.1487179 17.6820513 21.0051282 17.7025641 20.8410256L17.7025641 17.2717949C17.7025641 17.2102564 17.7230769 17.1282051 17.7846154 17.0871795 17.8461538 17.0461538 17.9076923 17.0666667 17.9692308 17.1076923 18.7692308 17.5794872 19.6102564 17.9076923 20.5128205 18.1128205 21.2923077 18.3179487 22.1128205 18.4205128 22.9333333 18.4205128 23.7128205 18.4205128 24.2666667 18.3179487 24.6358974 18.1333333 24.9641026 17.9897436 25.1897436 17.6410256 25.1897436 17.2717949 25.1897436 16.9846154 25.025641 16.7179487 24.6974359 16.4512821 24.3692308 16.1846154 23.6923077 15.8769231 22.6871795 15.4871795 21.6410256 15.1179487 20.6769231 14.625641 19.774359 14.0102564 19.1384615 13.5589744 18.6051282 12.9641026 18.2153846 12.2666667 17.8871795 11.6102564 17.7230769 10.8923077 17.7435897 10.174359 17.7435897 9.29230769 17.9897436 8.45128205 18.4410256 7.69230769 18.9538462 6.87179487 19.7128205 6.21538462 20.5948718 5.80512821 21.5589744 5.31282051 22.7692308 5.08717949 24.225641 5.08717949 25.0666667 5.08717949 25.9282051 5.14871795 26.7692308 5.27179487 27.3846154 5.35384615 27.9794872 5.51794872 28.5333333 5.74358974 28.6153846 5.76410256 28.6974359 5.84615385 28.7384615 5.92820513 28.7589744 6.01025641 28.7794872 6.09230769 28.7794872 6.17435897L28.7794872 9.51794872C28.7794872 9.6 28.7384615 9.68205128 28.6769231 9.72307692 28.4923077 9.76410256 28.3897436 9.76410256 28.3076923 9.72307692z" transform="translate(11.077 12.205)"/>
  </g>
</svg>
