<svg xmlns="http://www.w3.org/2000/svg" xmlns:xlink="http://www.w3.org/1999/xlink" width="161" height="185" viewBox="0 0 161 185">
  <defs>
    <filter id="outsound-logo-2-a">
      <feColorMatrix in="SourceGraphic" values="0 0 0 0 0.250980 0 0 0 0 0.690196 0 0 0 0 0.749020 0 0 0 1.000000 0"/>
    </filter>
    <polygon id="outsound-logo-2-b" points="0 0 159.766 0 159.766 159.179 0 159.179"/>
  </defs>
  <g fill="none" fill-rule="evenodd" transform="translate(.4 .188)">
    <text fill="#40B0BF" font-family="Montserrat-Black, Montserrat" font-size="20" font-weight="700" letter-spacing="2.8">
      <tspan x="6.85" y="179.212">OUTSOUND</tspan>
    </text>
    <g filter="url(#outsound-logo-2-a)">
      <mask id="outsound-logo-2-c" fill="#fff">
        <use xlink:href="#outsound-logo-2-b"/>
      </mask>
      <path fill="#FFF" d="M87.8572399,135.798824 C82.250155,141.374706 73.4666863,143.230588 63.1251365,141.022941 C52.367941,138.727647 41.327941,132.356471 32.0384945,123.085294 C22.749048,113.814118 16.373845,102.803529 14.0877934,92.0823529 C11.8903026,81.7747059 13.7677934,73.0264706 19.3742878,67.45 C23.5750258,63.2723529 29.412369,61.28 36.0390849,61.28 C48.1843247,61.28 62.9781255,67.9711765 75.1936236,80.1629412 C94.074214,99.0070588 99.7550996,123.964706 87.8572399,135.798824 M158.988162,154.659412 L4.53561624,0.774705882 C3.49768266,-0.258235294 1.81620664,-0.258235294 0.778273063,0.774705882 C-0.259660517,1.80882353 -0.259660517,3.48470588 0.778273063,4.51882353 L57.8593063,61.39 C53.6839557,59.4211765 49.4377565,57.9488235 45.2198967,57.0488235 C33.0575351,54.4517647 22.5447675,56.8158824 15.6204871,63.7029412 C8.69561624,70.5905882 6.30565314,81.06 8.89045018,93.1823529 C11.3866863,104.891765 18.272,116.84 28.2776089,126.825882 C38.2832177,136.811765 50.2637343,143.692353 62.011631,146.2 C65.2328856,146.887647 68.3378303,147.227059 71.2910406,147.227059 C79.4905978,147.227059 86.5205609,144.608824 91.6110406,139.545294 C98.5359114,132.658235 100.926465,122.188824 98.3416679,110.065882 C97.4371661,105.823529 95.9487528,101.550588 93.9525904,97.3505882 L155.230819,158.403529 C155.749786,158.92 156.429343,159.178824 157.109491,159.178824 C157.789638,159.178824 158.469196,158.92 158.988162,158.403529 C160.025506,157.369412 160.025506,155.693529 158.988162,154.659412" mask="url(#outsound-logo-2-c)"/>
      <path fill="#FFF" d="M146.985801 134.498C147.504768 135.014471 148.184325 135.273294 148.864472 135.273294 149.54462 135.273294 150.224177 135.014471 150.743144 134.498 151.781077 133.464471 151.781077 131.788 150.743144 130.754471L28.5291218 8.98976471C27.4911882 7.95623529 25.8097122 7.95623529 24.7717786 8.98976471 23.7344354 10.0232941 23.7344354 11.6997647 24.7717786 12.7332941L146.985801 134.498zM140.102967 109.590765C140.621934 110.107235 141.301491 110.366059 141.981638 110.366059 142.661786 110.366059 143.341343 110.107235 143.86031 109.590765 144.898244 108.557235 144.898244 106.880765 143.86031 105.847235L53.5282066 15.8472353C52.4902731 14.8137059 50.808797 14.8137059 49.7708635 15.8472353 48.7335203 16.8807647 48.7335203 18.5572353 49.7708635 19.5907647L140.102967 109.590765zM132.628074 85.2734706C133.147041 85.7899412 133.826598 86.0487647 134.506745 86.0487647 135.186893 86.0487647 135.86645 85.7899412 136.385417 85.2734706 137.423351 84.2399412 137.423351 82.5634706 136.385417 81.5299412L77.9352325 23.2946471C76.8972989 22.2611176 75.2158229 22.2611176 74.1778893 23.2946471 73.1405461 24.3281765 73.1405461 26.0046471 74.1778893 27.0381765L132.628074 85.2734706zM125.153417 60.9559412C125.672384 61.4724118 126.351941 61.7312353 127.032089 61.7312353 127.712236 61.7312353 128.391793 61.4724118 128.91076 60.9559412 129.948694 59.9224118 129.948694 58.2459412 128.91076 57.2124118L102.342494 30.7418235C101.304561 29.7082941 99.6230849 29.7082941 98.5851513 30.7418235 97.5478081 31.7753529 97.5478081 33.4518235 98.5851513 34.4853529L125.153417 60.9559412zM122.765579 42.1582353C123.284546 42.6747059 123.964103 42.9335294 124.644251 42.9335294 125.324399 42.9335294 126.003956 42.6747059 126.522923 42.1582353 127.560856 41.1247059 127.560856 39.4482353 126.522923 38.4147059L121.209269 33.1205882C120.171336 32.0870588 118.48986 32.0870588 117.451926 33.1205882 116.414583 34.1541176 116.414583 35.8305882 117.451926 36.8641176L122.765579 42.1582353zM80.3491661 128.305412C77.2690185 131.368941 71.1919705 132.144235 64.0917491 130.380118 55.7386863 128.304824 47.0266568 123.057176 39.559203 115.604824 29.8470258 105.911294 23.8189815 93.8177647 23.8278279 84.0424706 23.8307897 80.0177647 24.8586863 76.9565882 26.8831882 74.9436471 29.2454022 72.5930588 32.685107 71.9042353 35.9063616 71.9042353 38.1493137 71.9042353 40.2877638 72.2389412 41.880679 72.5789412 50.5283542 74.4242353 59.9293875 79.9154118 67.6725609 87.6436471 77.384738 97.3371765 83.4127823 109.430706 83.4045251 119.205412 83.4009742 123.230706 82.3730775 126.292471 80.3491661 128.305412M42.9935941 67.4018824C38.0589815 66.3489412 28.9147749 65.4412941 23.128797 71.1965882 20.0710849 74.2371765 18.5183173 78.5577647 18.5141731 84.0383529 18.5041476 95.1654118 25.127321 108.694235 35.7989077 119.345412 43.9382435 127.468941 53.5293875 133.211882 62.805845 135.517176 65.7513801 136.248941 68.5587601 136.609529 71.1618598 136.609529 76.5640738 136.609529 81.0818598 135.057176 84.1029668 132.051882 87.160679 129.010706 88.7134465 124.690118 88.7181798 119.210118 88.7276162 108.082471 82.1044428 94.5542353 71.4328561 83.9036471 62.9835572 75.4707059 52.6183911 69.456 42.9935941 67.4018824"/>
    </g>
  </g>
</svg>
