<svg xmlns="http://www.w3.org/2000/svg" xmlns:xlink="http://www.w3.org/1999/xlink" width="192" height="146" viewBox="0 0 192 146">
  <defs>
    <filter id="outsound-logo-1-a">
      <feColorMatrix in="SourceGraphic" values="0 0 0 0 0.250980 0 0 0 0 0.690196 0 0 0 0 0.749020 0 0 0 1.000000 0"/>
    </filter>
    <polygon id="outsound-logo-1-b" points="0 0 20.601 0 20.601 19.089 0 19.089"/>
    <polygon id="outsound-logo-1-d" points="0 0 149.56 0 149.56 144.747 0 144.747"/>
  </defs>
  <g fill="none" fill-rule="evenodd" filter="url(#outsound-logo-1-a)" transform="translate(-115 -6523)">
    <g transform="translate(115.2 6523.743)">
      <path fill="#000" d="M150.794063 99.2403081L148.212379 99.2403081 148.212379 107.898075 150.794063 107.898075C152.115328 107.898075 153.171472 107.51995 153.962493 106.763699 154.753513 106.007448 155.149567 104.942613 155.149567 103.569192 155.149567 102.195771 154.753513 101.130935 153.962493 100.374684 153.171472 99.6184334 152.115328 99.2403081 150.794063 99.2403081M90.1776316 99.5663325C89.5604615 99.1925534 88.8694048 99.0056639 88.1044615 99.0056639 87.3389749 99.0056639 86.6479182 99.1925534 86.0312913 99.5663325 85.4141212 99.9401116 84.9229928 100.470356 84.5579063 101.157067 84.1928197 101.843777 84.0102764 102.647837 84.0102764 103.569246 84.0102764 104.490655 84.1928197 105.294715 84.5579063 105.981425 84.9229928 106.668136 85.4141212 107.19838 86.0312913 107.572159 86.6479182 107.945939 87.3389749 108.132828 88.1044615 108.132828 88.8694048 108.132828 89.5604615 107.945939 90.1776316 107.572159 90.7948018 107.19838 91.2859301 106.668136 91.6510167 105.981425 92.0161033 105.294715 92.1986466 104.490655 92.1986466 103.569246 92.1986466 102.647837 92.0161033 101.843777 91.6510167 101.157067 91.2859301 100.470356 90.7948018 99.9401116 90.1776316 99.5663325M13.8471033 105.981479C13.4820167 106.66819 12.9908884 107.198435 12.3737182 107.572214 11.7565481 107.945993 11.0654913 108.132882 10.3005481 108.132882 9.53506149 108.132882 8.84454806 107.945993 8.22737791 107.572214 7.61020776 107.198435 7.1190794 106.66819 6.75399284 105.981479 6.38890627 105.294769 6.20636299 104.490709 6.20636299 103.5693 6.20636299 102.647891 6.38890627 101.843832 6.75399284 101.157121 7.1190794 100.470411 7.61020776 99.940166 8.22737791 99.5663869 8.84454806 99.1926078 9.53506149 99.0057182 10.3005481 99.0057182 11.0654913 99.0057182 11.7565481 99.1926078 12.3737182 99.5663869 12.9908884 99.940166 13.4820167 100.470411 13.8471033 101.157121 14.2121899 101.843832 14.3947331 102.647891 14.3947331 103.5693 14.3947331 104.490709 14.2121899 105.294769 13.8471033 105.981479M12.93656 98.6368287C12.1498854 98.160369 11.2632466 97.919151 10.3005481 97.919151 9.33784955 97.919151 8.45066746 98.160369 7.66453612 98.6368287 6.88003463 99.1122018 6.25145552 99.7885899 5.79455403 100.646978 5.34688836 101.489067 5.11979582 102.472411 5.11979582 103.5693 5.11979582 104.666733 5.34688836 105.650076 5.79455403 106.491079 6.25145552 107.351097 6.88057791 108.026942 7.66399284 108.501229 8.45012418 108.977688 9.33730627 109.21945 10.3005481 109.21945 11.2637899 109.21945 12.1504287 108.977688 12.93656 108.501772 13.7210615 108.026942 14.3501839 107.350554 14.8065421 106.491623 15.2542078 105.64899 15.4813003 104.66619 15.4813003 103.5693 15.4813003 102.472954 15.2542078 101.489611 14.8065421 100.646978 14.3501839 99.7885899 13.7216048 99.1122018 12.93656 98.6368287"/>
      <g transform="translate(0 94.025)">
        <mask id="outsound-logo-1-c" fill="#fff">
          <use xlink:href="#outsound-logo-1-b"/>
        </mask>
        <path fill="#000" d="M18.3437528,13.8939343 C17.5549051,15.1858627 16.4911558,16.169206 15.0916573,16.9004657 C13.690529,17.6317254 12.0786066,18.0022448 10.3004394,18.0022448 C8.52227224,18.0022448 6.91089313,17.6317254 5.50976478,16.9004657 C4.11026627,16.1697493 3.04651701,15.1858627 2.25712597,13.8939343 C1.48023045,12.6226507 1.08634985,11.1590448 1.08634985,9.54494925 C1.08634985,7.90803582 1.46936478,6.48517612 2.25712597,5.1954209 C3.04651701,3.90349254 4.11026627,2.92014925 5.50976478,2.18943284 C6.91089313,1.45762985 8.52227224,1.08656716 10.3004394,1.08656716 C12.0786066,1.08656716 13.690529,1.45762985 15.0916573,2.18943284 C16.4906125,2.92014925 17.5549051,3.90349254 18.3437528,5.1954209 C19.131514,6.48517612 19.514529,7.90749254 19.514529,9.54494925 C19.514529,11.1590448 19.1206484,12.6226507 18.3437528,13.8939343 M15.5941946,1.22619104 C14.0295379,0.409092537 12.2649528,0 10.3004394,0 C8.33592597,0 6.5713409,0.409092537 5.00668418,1.22619104 C3.44202746,2.04328955 2.2163797,3.17766567 1.3297409,4.62877612 C0.44310209,6.08097313 -0.000217313433,7.71897313 -0.000217313433,9.54494925 C-0.000217313433,11.3698388 0.44310209,13.0089254 1.3297409,14.4600358 C2.2163797,15.9122328 3.44202746,17.046609 5.00668418,17.8637075 C6.5713409,18.6802627 8.33592597,19.0893552 10.3004394,19.0893552 C12.2649528,19.0893552 14.0295379,18.6802627 15.5941946,17.8637075 C17.1588513,17.046609 18.3844991,15.9122328 19.2711379,14.4600358 C20.1577767,13.0089254 20.6010961,11.3698388 20.6010961,9.54494925 C20.6010961,7.71897313 20.1577767,6.08097313 19.2711379,4.62877612 C18.3844991,3.17766567 17.1588513,2.04328955 15.5941946,1.22619104" mask="url(#outsound-logo-1-c)"/>
      </g>
      <path fill="#000" d="M35.508689,104.299365 L35.508689,95.5285946 L39.3855606,95.5285946 L39.3855606,104.481908 C39.3855606,106.926684 38.7265576,108.75266 37.3699785,110.063604 C36.003077,111.384869 34.1091904,112.02703 31.5796621,112.02703 C29.0501337,112.02703 27.1562472,111.384869 25.7893457,110.063604 C24.4333099,108.75266 23.7737636,106.926684 23.7737636,104.481908 L23.7737636,95.5285946 L27.7549457,95.5285946 L27.7549457,104.299365 C27.7549457,105.904224 28.0657039,107.079347 28.7040621,107.891013 C29.1799785,108.496774 30.07368,109.219341 31.6318173,109.219341 C33.1888681,109.219341 34.0836561,108.497317 34.5595725,107.891556 C35.198474,107.078804 35.508689,105.903681 35.508689,104.299365 L35.508689,104.299365 Z M34.4221218,104.299365 C34.4221218,105.638016 34.183077,106.61158 33.7049875,107.220057 C33.2268979,107.829078 32.5358412,108.132774 31.6318173,108.132774 C30.7277934,108.132774 30.0367367,107.829078 29.5586472,107.220057 C29.0800143,106.61158 28.8415128,105.638016 28.8415128,104.299365 L28.8415128,94.4420275 L22.6871964,94.4420275 L22.6871964,104.481908 C22.6871964,107.211365 23.4695248,109.332344 25.0341815,110.844845 C26.5988382,112.357347 28.7806651,113.113598 31.5796621,113.113598 C34.3786591,113.113598 36.560486,112.357347 38.1251427,110.844845 C39.6897994,109.332344 40.4721278,107.211365 40.4721278,104.481908 L40.4721278,94.4420275 L34.4221218,94.4420275 L34.4221218,104.299365 Z"/>
      <g transform="translate(42.167)">
        <mask id="outsound-logo-1-e" fill="#fff">
          <use xlink:href="#outsound-logo-1-d"/>
        </mask>
        <path fill="#000" d="M117.89797,108.419627 C117.037409,109.793048 115.828603,110.849192 114.273182,111.588057 C112.717218,112.326923 110.922209,112.696356 108.888155,112.696356 L99.8908358,112.696356 L99.8908358,94.4420275 L108.888155,94.4420275 C110.922209,94.4420275 112.717218,94.8114603 114.273182,95.550326 C115.828603,96.2891916 117.037409,97.3458782 117.89797,98.7187558 C118.758531,100.092177 119.188812,101.708989 119.188812,103.569192 C119.188812,105.429938 118.758531,107.04675 117.89797,108.419627 L117.89797,108.419627 Z M96.9190746,112.696356 L91.8600179,112.696356 L84.9233731,104.403675 L84.9233731,112.696356 L78.9255224,112.696356 L78.9255224,94.4420275 L83.9845791,94.4420275 L90.9212239,102.734708 L90.9212239,94.4420275 L96.9190746,94.4420275 L96.9190746,112.696356 Z M76.1091403,104.481908 C76.1091403,107.211365 75.3273552,109.332344 73.7621552,110.844845 C72.1974985,112.357347 70.0156716,113.113598 67.2166746,113.113598 C64.4176776,113.113598 62.2358507,112.357347 60.6717373,110.844845 C59.1070806,109.332344 58.3247522,107.211365 58.3247522,104.481908 L58.3247522,94.4420275 L64.4785254,94.4420275 L64.4785254,104.299365 C64.4785254,105.638016 64.7175701,106.61158 65.196203,107.220057 C65.6737493,107.829078 66.364806,108.132774 67.2693731,108.132774 C68.1728537,108.132774 68.8639104,107.829078 69.342,107.220057 C69.8200896,106.61158 70.0591343,105.638016 70.0591343,104.299365 L70.0591343,94.4420275 L76.1091403,94.4420275 L76.1091403,104.481908 Z M54.9080418,108.484821 C54.021403,109.936475 52.7957552,111.070851 51.2316418,111.88795 C49.6664418,112.705048 47.9018567,113.113598 45.9373433,113.113598 C43.9728299,113.113598 42.2082448,112.705048 40.6435881,111.88795 C39.0789313,111.070851 37.8538269,109.936475 36.9666448,108.484821 C36.080006,107.033711 35.6366866,105.394624 35.6366866,103.569192 C35.6366866,101.743759 36.080006,100.105216 36.9666448,98.6535618 C37.8538269,97.2024513 39.0789313,96.0680752 40.6435881,95.2504334 C42.2082448,94.4333349 43.9728299,94.0247857 45.9373433,94.0247857 C47.9018567,94.0247857 49.6664418,94.4333349 51.2316418,95.2504334 C52.7957552,96.0680752 54.021403,97.2024513 54.9080418,98.6535618 C55.7946806,100.105216 56.238,101.743759 56.238,103.569192 C56.238,105.394624 55.7946806,107.033711 54.9080418,108.484821 L54.9080418,108.484821 Z M33.5770985,110.075556 C32.9333075,111.005657 31.9733254,111.744523 30.6955224,112.292153 C29.4177194,112.839783 27.8661015,113.113598 26.0406687,113.113598 C24.5281672,113.113598 23.0547821,112.944093 21.6205134,112.605084 C20.1862448,112.266075 19.008406,111.809717 18.086997,111.23601 L20.0688955,106.75066 C20.937606,107.254827 21.9111701,107.659574 22.9895881,107.963269 C24.0674627,108.267508 25.1018746,108.419627 26.0928239,108.419627 C26.9441493,108.419627 27.5531701,108.337592 27.9182567,108.17189 C28.2833433,108.006732 28.4658866,107.758995 28.4658866,107.428678 C28.4658866,107.04675 28.2262985,106.759353 27.7487522,106.568117 C27.2701194,106.376881 26.4839881,106.16826 25.3887284,105.942254 C23.9805373,105.646708 22.8070448,105.32943 21.8682507,104.990421 C20.9294567,104.651413 20.1118149,104.095633 19.4164119,103.321454 C18.7215522,102.547819 18.3738507,101.500368 18.3738507,100.179102 C18.3738507,99.0316872 18.6949313,97.9885827 19.3387224,97.0497887 C19.9814269,96.1109946 20.9424955,95.372129 22.2202985,94.8331916 C23.4981015,94.2942543 25.0497194,94.0247857 26.8751522,94.0247857 C28.1268776,94.0247857 29.3563284,94.15952 30.5651343,94.4289887 C31.773397,94.6990006 32.8376896,95.0939678 33.7596418,95.61552 L31.9081313,100.074792 C30.1169254,99.171311 28.4224239,98.7187558 26.822997,98.7187558 C25.2409552,98.7187558 24.4499343,99.1012275 24.4499343,99.8661707 C24.4499343,100.231257 24.6846328,100.505072 25.1540299,100.687616 C25.6234269,100.870159 26.3965194,101.065741 27.4749373,101.274362 C28.8657433,101.535138 30.0386925,101.83503 30.9954149,102.174039 C31.9510507,102.513048 32.7817313,103.065568 33.4852836,103.829968 C34.1899224,104.594911 34.5419701,105.638016 34.5419701,106.959281 C34.5419701,108.106696 34.219803,109.145454 33.5770985,110.075556 L33.5770985,110.075556 Z M15.7601134,98.1276633 L11.5002269,98.1276633 L10.4136597,98.1276633 L10.4136597,99.2142304 L10.4136597,111.609789 L6.4330209,111.609789 L6.4330209,99.2142304 L6.4330209,98.1276633 L5.34645373,98.1276633 L1.08656716,98.1276633 L1.08656716,95.5285946 L15.7601134,95.5285946 L15.7601134,98.1276633 Z M145.914561,49.6466663 L127.879176,65.0976513 L144.488442,45.7100334 C140.781075,36.360123 135.180907,27.9674782 128.162227,21.0025827 L79.0602567,63.0679439 L120.660024,14.5092573 C111.349773,7.50361552 100.296669,2.69175284 88.2645672,0.842958806 L44.5959761,38.2540096 L77.3668418,0.0019558209 C77.305994,0.0019558209 77.2462328,-0.000217313433 77.1859284,-0.000217313433 C37.2149254,-0.000217313433 4.81240597,32.4028454 4.81240597,72.3738484 C4.81240597,80.0700036 6.01795224,87.4841946 8.24378507,94.4420275 L0,94.4420275 L0,99.2142304 L5.34645373,99.2142304 L5.34645373,112.696356 L11.5002269,112.696356 L11.5002269,102.78958 C22.9917612,127.563311 48.0800537,144.747371 77.1859284,144.747371 C117.156931,144.747371 149.559994,112.344851 149.559994,72.3738484 C149.559994,64.4337588 148.277301,56.7946484 145.914561,49.6466663 L145.914561,49.6466663 Z" mask="url(#outsound-logo-1-e)"/>
      </g>
    </g>
  </g>
</svg>
