<?xml version="1.0" encoding="utf-8"?>
<!-- Generator: Adobe Illustrator 25.0.1, SVG Export Plug-In . SVG Version: 6.00 Build 0)  -->
<svg version="1.1" id="Layer_1" xmlns="http://www.w3.org/2000/svg" xmlns:xlink="http://www.w3.org/1999/xlink" x="0px" y="0px"
	 viewBox="0 0 117.5 72.2" style="enable-background:new 0 0 117.5 72.2;" xml:space="preserve">
<g>
	<path d="M52.8,38.4c4-1.4,12.2-5,12.2-14.5C65,11.5,54.4,9.1,49.2,9.1H32.6v36.4c0,5.3-1.2,12.4-8.8,12.4c-7.7,0-8.2-5.9-8.2-5.9
		H9.8c0,0,2.4,11.1,14.1,11.1c14.5,0,13.7-17.6,13.7-17.6l0-29.2c0-1,0.4-1.6,2.1-1.8H43c4.9,0,15.7-1.4,15.7,9.3
		c0,12.2-17.6,10.7-17.6,10.7v4.7h5.5c3.1,2.4,26.8,23.9,26.8,23.9h7C80.4,63.1,54.6,39.9,52.8,38.4z"/>
	<g>
		<path d="M79.9,20.5h1.5v8.7c0,0.9-0.1,1.5-0.4,1.9c-0.4,0.6-1,0.9-1.9,0.9c-0.5,0-0.9-0.1-1.3-0.3v-1.5c0.4,0.3,0.8,0.4,1,0.4
			c0.7,0,1-0.5,1-1.4v-0.5V20.5z"/>
		<path d="M88.8,26.4c0,2-0.2,3.4-0.7,4.3c-0.4,0.8-1.2,1.3-2.2,1.3c-1.1,0-1.9-0.5-2.3-1.4c-0.4-0.9-0.7-2.5-0.7-4.7
			c0-2,0.2-3.4,0.7-4.3c0.4-0.8,1.2-1.3,2.3-1.3c0.9,0,1.7,0.3,2.1,1c0.3,0.4,0.5,1.1,0.7,1.9C88.7,23.9,88.8,25,88.8,26.4z
			 M87.2,26.6c0-2-0.1-3.3-0.3-3.9c-0.2-0.6-0.5-1-1.1-1c-0.5,0-0.9,0.3-1.1,0.9c-0.2,0.6-0.3,1.8-0.3,3.6c0,1.7,0.1,2.8,0.3,3.4
			c0.2,0.6,0.5,0.9,1.1,0.9c0.5,0,0.9-0.3,1.1-0.8C87.1,29.1,87.2,28.1,87.2,26.6z"/>
		<path d="M94.1,20.7v1.5c-0.5-0.3-0.9-0.5-1.3-0.5c-0.4,0-0.7,0.1-1,0.4c-0.3,0.3-0.4,0.6-0.4,1.1c0,0.4,0.1,0.7,0.3,1
			c0.1,0.2,0.2,0.3,0.5,0.6c0.2,0.2,0.5,0.5,0.8,0.9c0.6,0.6,1,1.2,1.3,1.6c0.2,0.4,0.3,1,0.3,1.6c0,0.9-0.2,1.6-0.7,2.2
			c-0.5,0.6-1.1,0.8-1.9,0.8c-0.6,0-1.2-0.2-1.7-0.5v-1.5c0.5,0.4,1,0.6,1.5,0.6c0.4,0,0.7-0.1,1-0.4s0.4-0.7,0.4-1.1
			c0-0.4-0.1-0.8-0.3-1.1c-0.1-0.2-0.2-0.3-0.4-0.5s-0.4-0.4-0.6-0.7c-0.4-0.4-0.7-0.7-1-1s-0.4-0.5-0.6-0.8c-0.2-0.4-0.4-1-0.4-1.6
			c0-0.9,0.2-1.6,0.7-2.1c0.5-0.5,1.1-0.8,1.9-0.8C93.1,20.3,93.6,20.4,94.1,20.7z"/>
		<path d="M95.9,20.5h1.5v4.4h2.2v-4.4h1.5v11.3h-1.5v-5.6h-2.2v5.6h-1.5V20.5z"/>
		<path d="M72.5,34.5h2c0.8,0,1.4,0.2,1.9,0.6c0.5,0.5,0.8,1.3,0.8,2.4c0,0.8-0.1,1.5-0.4,2c-0.3,0.5-0.7,0.8-1.2,0.9l2.1,5.5h-1.5
			L74,40.2v5.5h-1.5V34.5z M74,39.5c0.6,0,1-0.1,1.3-0.4s0.4-0.7,0.4-1.4c0-0.4,0-0.7-0.1-0.9c-0.1-0.2-0.1-0.5-0.2-0.6
			c-0.1-0.2-0.3-0.3-0.4-0.3c-0.2-0.1-0.4-0.1-0.6-0.1H74V39.5z"/>
		<path d="M78.6,34.5h1.5v8c0,0.8,0.1,1.4,0.2,1.6c0.2,0.3,0.4,0.4,0.9,0.4s0.7-0.1,0.9-0.4c0.1-0.2,0.2-0.7,0.2-1.5v-8.2h1.5v8.2
			c0,1.2-0.2,2.1-0.6,2.5c-0.4,0.5-1.1,0.7-2.1,0.7c-1,0-1.7-0.3-2.1-1c-0.3-0.4-0.4-1.3-0.4-2.5V34.5z"/>
		<path d="M85.5,34.5h2.1c1.6,0,2.4,1,2.4,3c0,0.8-0.1,1.3-0.3,1.7c-0.2,0.4-0.6,0.7-1.1,0.8c0.6,0.2,1,0.6,1.3,0.9
			c0.2,0.4,0.3,0.9,0.3,1.7c0,2.1-0.9,3.1-2.7,3.1h-2V34.5z M87,39.4c0.6,0,1-0.1,1.2-0.4c0.2-0.3,0.3-0.8,0.3-1.5
			c0-1.2-0.4-1.8-1.3-1.8h-0.1h-0.1c0,0-0.1,0-0.1,0V39.4z M87,44.5c0.6,0,1.1-0.1,1.3-0.4c0.2-0.3,0.4-0.8,0.4-1.5
			c0-0.7-0.1-1.2-0.4-1.5c-0.2-0.3-0.7-0.4-1.3-0.4V44.5z"/>
		<path d="M91.7,34.5h1.5v11.3h-1.5V34.5z"/>
		<path d="M95,34.5h1.4l1.5,4.5c0.4,1.3,0.8,2.6,1.2,4.1c-0.1-0.9-0.2-1.7-0.3-2.4s-0.1-1.4-0.1-2v-4.2h1.5v11.3h-1.4l-1.7-5.1
			c-0.2-0.5-0.3-1-0.4-1.5c-0.1-0.5-0.3-1-0.4-1.6c0-0.1,0-0.2,0-0.2c0-0.1,0-0.2-0.1-0.3c0,0.1,0,0.2,0,0.3c0,0.1,0,0.2,0,0.2
			l0.1,1.2l0.1,1.4c0,0.1,0,0.2,0,0.3c0,0.1,0,0.2,0,0.4l0.1,4.9H95V34.5z"/>
		<path d="M107.7,40.4c0,2-0.2,3.4-0.7,4.3c-0.4,0.8-1.2,1.3-2.2,1.3c-1.1,0-1.9-0.5-2.3-1.4c-0.4-0.9-0.7-2.5-0.7-4.7
			c0-2,0.2-3.4,0.7-4.3c0.4-0.8,1.2-1.3,2.3-1.3c0.9,0,1.7,0.3,2.1,1c0.3,0.4,0.5,1.1,0.7,1.9C107.6,37.9,107.7,39,107.7,40.4z
			 M106.1,40.6c0-2-0.1-3.3-0.3-3.9c-0.2-0.6-0.5-1-1.1-1c-0.5,0-0.9,0.3-1.1,0.9c-0.2,0.6-0.3,1.8-0.3,3.6c0,1.7,0.1,2.8,0.3,3.4
			c0.2,0.6,0.5,0.9,1.1,0.9c0.5,0,0.9-0.3,1.1-0.8C106,43.1,106.1,42.1,106.1,40.6z"/>
	</g>
</g>
</svg>
